<svg width="60" height="60" viewBox="0 0 60 60" fill="none" xmlns="http://www.w3.org/2000/svg">
<path d="M45.7143 25.7143C49.9714 25.7143 53.9143 27.0571 57.1429 29.3143V17.1429C57.1429 13.9714 54.6 11.4286 51.4286 11.4286H40V5.71429C40 2.54286 37.4571 0 34.2857 0H22.8571C19.6857 0 17.1429 2.54286 17.1429 5.71429V11.4286H5.71429C2.54286 11.4286 0.0285714 13.9714 0.0285714 17.1429L0 48.5714C0 51.7429 2.54286 54.2857 5.71429 54.2857H27.6571C26.2076 51.2386 25.5531 47.8741 25.7547 44.5058C25.9563 41.1375 27.0075 37.8751 28.8102 35.0227C30.6129 32.1703 33.1085 29.8207 36.0643 28.1931C39.0202 26.5654 42.34 25.7127 45.7143 25.7143ZM22.8571 5.71429H34.2857V11.4286H22.8571V5.71429Z" fill="#7456FF"/>
<path d="M45.7143 31.4287C37.8286 31.4287 31.4286 37.8287 31.4286 45.7144C31.4286 53.6001 37.8286 60.0001 45.7143 60.0001C53.6 60.0001 60 53.6001 60 45.7144C60 37.8287 53.6 31.4287 45.7143 31.4287ZM50.4286 52.4287L44.2857 46.2859V37.143H47.1429V45.1144L52.4286 50.4001L50.4286 52.4287Z" fill="#7456FF"/>
</svg>
